<?xml version="1.0" encoding="UTF-8"?><svg id="Capa_1" xmlns="http://www.w3.org/2000/svg" viewBox="0 0 58 58"><defs><style>.cls-1{stroke-miterlimit:10;}.cls-1,.cls-2,.cls-3{fill:none;}.cls-1,.cls-3{stroke:#7b7b7b;stroke-width:1.78px;}.cls-4{fill:#7b7b7b;}.cls-3{stroke-linecap:round;stroke-linejoin:round;}</style></defs><g id="aceria"><line id="Línea_786" class="cls-1" x1="7.58" y1="21.71" x2="7.58" y2="45.04"/><line id="Línea_787" class="cls-1" x1="50.41" y1="21.71" x2="50.41" y2="45.04"/><path id="Trazado_610" class="cls-3" d="M7.58,44.63s21.41,25.41,42.83,0"/><line id="Línea_788" class="cls-3" x1="7.58" y1="21.45" x2="50.41" y2="21.45"/><path id="Trazado_611" class="cls-3" d="M50.41,11.67C28.22-3.61,7.59,11.67,7.59,11.67v3.39S28.22-.22,50.41,15.06v-3.39Z"/><path id="Trazado_612" class="cls-3" d="M36.9,5.41V2.08h-15.81v3.34"/><rect id="Rectángulo_950" class="cls-1" x="7.58" y="33.93" width="42.76" height="4.25"/><g id="Trazado_978"><path class="cls-2" d="M22.84,8.62l3.36-.44-.02,7.49v5.68h-3.34s0-12.74,0-12.74Z"/><path class="cls-4" d="M26.2,8.17l-.03,13.18h-3.33V8.62l3.36-.45h0Z"/></g><g id="Trazado_979"><path class="cls-2" d="M35.84,8.62l-3.36-.44,.02,7.49v5.68h3.34s0-12.74,0-12.74Z"/><path class="cls-4" d="M32.48,8.17l3.36,.45v12.74h-3.33l-.03-13.18h0Z"/></g></g></svg>